<svg width="18" height="16" viewBox="0 0 18 16" fill="none" xmlns="http://www.w3.org/2000/svg">
<path d="M9.72077 0.496863C9.39962 -0.0565958 8.60036 -0.056598 8.27921 0.496863L6.0175 4.39462C5.85886 4.66802 5.58465 4.8546 5.27209 4.90181L1.0335 5.54199C0.321598 5.64952 0.0718816 6.54836 0.626303 7.00769L3.78388 9.62371C4.07616 9.86587 4.2136 10.2478 4.1426 10.6207L3.31662 14.9583C3.18605 15.644 3.90588 16.1768 4.5235 15.8516L8.51467 13.75C8.81845 13.5901 9.18153 13.5901 9.4853 13.75L13.4765 15.8516C14.0941 16.1768 14.8139 15.644 14.6834 14.9583L13.8574 10.6207C13.7864 10.2478 13.9238 9.86587 14.2161 9.62371L17.3737 7.00769C17.9281 6.54836 17.6784 5.64952 16.9665 5.54199L12.7279 4.90181C12.4153 4.8546 12.1411 4.66802 11.9825 4.39462L9.72077 0.496863Z" fill="#299764"/>
</svg>
