<svg xmlns="http://www.w3.org/2000/svg" width="21" height="21" fill="none"><path fill="#fff" d="M17.93 3.06A10.44 10.44 0 0 0 1.47 15.6L0 21l5.56-1.46a10.7 10.7 0 0 0 4.98 1.24c5.78 0 10.46-4.67 10.46-10.43-.07-2.7-1.1-5.32-3.07-7.29Zm-2.34 11.09c-.22.58-1.25 1.16-1.76 1.24a4.1 4.1 0 0 1-1.61-.08c-.37-.14-.88-.29-1.46-.58-2.64-1.1-4.32-3.72-4.47-3.94a4.7 4.7 0 0 1-1.1-2.7c0-1.3.66-1.9.88-2.18.22-.3.52-.3.73-.3h.52c.14 0 .36-.07.58.44.22.51.73 1.83.8 1.9.08.14.08.29 0 .44-.07.14-.14.29-.29.43-.14.15-.29.37-.36.44-.15.15-.3.3-.15.51.15.3.66 1.1 1.47 1.82 1.02.88 1.83 1.17 2.12 1.32.29.14.44.07.58-.08.15-.14.66-.73.8-1.02.15-.29.37-.22.6-.14a19.65 19.65 0 0 1 2.26 1.16c.07.22.07.73-.14 1.32Z"/></svg>